# xmcd
# 
# Track frame offsets:
#     150
#     19120
#     38078
#     62411
#     89164
#     113205
#     139409
#     156545
#     178055
#     203444
#     220413
#     240928
# 
# Disc length: 3437
# 
# Revision: 0
# Processed by: cddbd v1.5.2PL0 Copyright (c) Steve Scherf et al.
# Submitted via: BonkEnc v1.0
# 
DISCID=a80d6b0c
DTITLE=48 Godzin - 48 Godzin
DYEAR=2008
DGENRE=Blues
TTITLE0=Demokracja
TTITLE1=Do ciebie idę
TTITLE2=Reggae pamiętasz?
TTITLE3=Kolacja
TTITLE4=Zdzichu
TTITLE5=Zasoby
TTITLE6=Starzy rolnicy
TTITLE7=Co robiłem wczoraj
TTITLE8=Przyjdź
TTITLE9=Pogłaszcz mnie
TTITLE10=Prosty song
TTITLE11=Siekiera
EXTD=Zespólł z Białegostoku
EXTT0=
EXTT1=
EXTT2=
EXTT3=
EXTT4=
EXTT5=
EXTT6=
EXTT7=
EXTT8=
EXTT9=
EXTT10=
EXTT11=
PLAYORDER=
